<?xml version="1.0" encoding="iso-8859-1"?>
<!-- Generator: Adobe Illustrator 19.0.0, SVG Export Plug-In . SVG Version: 6.00 Build 0)  -->
<svg version="1.1" id="Layer_1" xmlns="http://www.w3.org/2000/svg" xmlns:xlink="http://www.w3.org/1999/xlink" x="0px" y="0px"
	 viewBox="0 0 283.961 283.961" style="enable-background:new 0 0 283.961 283.961;" xml:space="preserve">
<g>
	<g>
		<g id="XMLID_17_">
			<g>
				<g>
					<g>
						<rect x="131.939" y="213.668" style="fill:#505967;" width="22.776" height="41.91"/>
					</g>
				</g>
				<g>
					<g>
						<path style="fill:#2D213F;" d="M283.961,39.217v147.398c0,14.92-12.006,27.053-26.768,27.053h-86.418v41.91h30.823
							c4.435,0,8.015,3.643,8.015,8.11c0,4.498-3.58,8.11-8.015,8.11H86.386c-4.435,0-8.046-3.611-8.046-8.11
							c0-4.467,3.611-8.11,8.046-8.11h29.461v-41.91H26.768C12.006,213.668,0,201.535,0,186.615V39.217
							c0-14.92,12.006-27.053,26.768-27.053h230.426C271.955,12.164,283.961,24.297,283.961,39.217z M267.901,186.615v-21.636
							H16.061v21.636c0,5.955,4.815,10.802,10.707,10.802h230.426C263.086,197.417,267.901,192.57,267.901,186.615z M267.901,148.76
							V39.217c0-5.987-4.815-10.834-10.707-10.834H26.768c-5.892,0-10.707,4.847-10.707,10.834V148.76H267.901z M154.715,255.578
							v-41.91h-22.776v41.91H154.715z"/>
					</g>
				</g>
				<g>
					<g>
						<path style="fill:#505967;" d="M267.901,164.979v21.636c0,5.955-4.815,10.802-10.707,10.802H26.768
							c-5.892,0-10.707-4.847-10.707-10.802v-21.636H267.901z"/>
					</g>
				</g>
				<g>
					<g>
						<path style="fill:#EAEEEF;" d="M267.901,39.217V148.76H16.061V39.217c0-5.987,4.815-10.834,10.707-10.834h230.426
							C263.086,28.383,267.901,33.23,267.901,39.217z"/>
					</g>
				</g>
			</g>
		</g>
		<g>
			<g>
				<path style="fill:#C5CBCF;" d="M16.061,148.136v0.624h251.84V61.25C228.176,87.197,153.645,121.713,16.061,148.136z"/>
			</g>
		</g>
	</g>
</g>
<g>
</g>
<g>
</g>
<g>
</g>
<g>
</g>
<g>
</g>
<g>
</g>
<g>
</g>
<g>
</g>
<g>
</g>
<g>
</g>
<g>
</g>
<g>
</g>
<g>
</g>
<g>
</g>
<g>
</g>
</svg>
