<?xml version="1.0" encoding="iso-8859-1"?>
<!-- Generator: Adobe Illustrator 19.0.0, SVG Export Plug-In . SVG Version: 6.00 Build 0)  -->
<svg version="1.1" id="Layer_1" xmlns="http://www.w3.org/2000/svg" xmlns:xlink="http://www.w3.org/1999/xlink" x="0px" y="0px"
	 viewBox="0 0 317.263 317.263" style="enable-background:new 0 0 317.263 317.263;" xml:space="preserve">
<g>
	<g>
		<g id="XMLID_22_">
			<g>
				<path style="fill:#FEDE94;" d="M27.116,168.857c5.955,0,10.771,4.815,10.771,10.739s-4.815,10.739-10.771,10.739
					c-5.924,0-10.771-4.815-10.771-10.739C16.346,173.672,21.193,168.857,27.116,168.857z"/>
				<path style="fill:#505967;" d="M253.044,125.427v106.596c-53.631,10.549-110.018,10.517-167.798-0.095V126.251l80.145,24.677
					c0.792,0.222,1.584,0.348,2.408,0.348s1.616-0.127,2.408-0.348L253.044,125.427z"/>
				<polygon style="fill:#505967;" points="276.961,100.971 167.798,134.55 59.016,101.067 169.889,77.53 				"/>
				<path style="fill:#2D213F;" d="M317.255,99.293c0.158,3.706-2.186,7.033-5.765,8.141l-42.068,12.956v118.286
					c0,3.865-2.693,7.191-6.462,7.983c-29.936,6.399-60.663,9.598-91.993,9.598s-63.198-3.199-95.477-9.567
					c-3.833-0.76-6.589-4.118-6.589-8.015V121.214l-34.212-10.517v42.892c11.277,3.295,19.577,13.685,19.577,26.008
					c0,14.952-12.164,27.085-27.148,27.085C12.164,206.681,0,194.548,0,179.596C0,167.717,7.666,157.643,18.342,154V99.609
					c0-0.127,0-0.222,0-0.348c0.158-3.738,2.819-6.874,6.462-7.634L168.21,61.184c1.14-0.253,2.344-0.222,3.453,0l139.193,30.443
					C314.467,92.418,317.128,95.555,317.255,99.293z M167.798,134.55l109.162-33.579L169.889,77.53L59.016,101.067L167.798,134.55z
					 M253.044,232.023V125.427l-82.838,25.501c-0.792,0.222-1.584,0.348-2.408,0.348s-1.616-0.127-2.408-0.348l-80.145-24.677
					v105.678C143.026,242.54,199.413,242.572,253.044,232.023z M37.887,179.596c0-5.924-4.815-10.739-10.771-10.739
					c-5.924,0-10.771,4.815-10.771,10.739s4.847,10.739,10.771,10.739C33.072,190.335,37.887,185.52,37.887,179.596z"/>
			</g>
		</g>
		<path style="fill:#454D5B;" d="M167.798,151.276c-0.824,0-1.616-0.127-2.408-0.348l-80.145-24.677v2.373l77.893,46.335
			l89.905-46.715v-2.813l-82.838,25.501C169.414,151.149,168.622,151.276,167.798,151.276z"/>
		<path style="fill:#454D5B;" d="M192.326,127.008l84.634-26.033l-56.944-12.468c10.191,3.69,20.116,7.286,26.999,9.782
			c3.238,1.172,3.304,5.724,0.101,6.994L192.326,127.008z"/>
	</g>
</g>
<g>
</g>
<g>
</g>
<g>
</g>
<g>
</g>
<g>
</g>
<g>
</g>
<g>
</g>
<g>
</g>
<g>
</g>
<g>
</g>
<g>
</g>
<g>
</g>
<g>
</g>
<g>
</g>
<g>
</g>
</svg>
