<?xml version="1.0" encoding="iso-8859-1"?>
<!-- Generator: Adobe Illustrator 19.0.0, SVG Export Plug-In . SVG Version: 6.00 Build 0)  -->
<svg version="1.1" id="Layer_1" xmlns="http://www.w3.org/2000/svg" xmlns:xlink="http://www.w3.org/1999/xlink" x="0px" y="0px"
	 viewBox="0 0 284.722 284.722" style="enable-background:new 0 0 284.722 284.722;" xml:space="preserve">
<g>
	<g>
		<g>
			<g id="XMLID_27_">
				<g>
					<path style="fill:#2D213F;" d="M284.722,52.29v195.39c0,2.249-0.887,4.403-2.503,5.987c-2.629,2.534-2.629,2.534-47.897,2.566
						c-8.395,0.032-17.74,0.032-27.655,0.032c-19.894,0-42.227-0.032-64.56-0.063C75.108,256.139,8.204,255.98,8.204,255.98
						C3.643,255.948,0,252.241,0,247.68V52.29c0-3.358,1.996-6.367,5.1-7.634c45.616-18.88,91.93-21.256,137.673-7.128
						c45.49-14.128,91.518-11.721,136.881,7.128C282.726,45.923,284.722,48.964,284.722,52.29z M268.281,239.57V57.929
						c-41.308-15.997-81.602-17.233-122.974-3.865c-1.647,0.539-3.39,0.539-5.037,0.032C99.215,40.855,57.59,42.153,16.441,57.929
						v181.515C108.37,239.634,235.969,239.824,268.281,239.57z"/>
					<path style="fill:#FEDE94;" d="M268.281,57.929V239.57c-32.312,0.253-159.91,0.063-251.84-0.127V57.929
						c41.15-15.776,82.775-17.074,123.829-3.833c1.647,0.507,3.39,0.507,5.037-0.032C186.678,40.696,226.973,41.931,268.281,57.929z
						 M264.099,225.79V72.754c0-3.295-1.964-6.272-4.973-7.603c-38.742-16.789-77.991-17.106-116.765-1.014
						C103.587,48.045,64.338,48.33,25.596,65.151c-3.009,1.33-4.973,4.308-4.973,7.603V225.79c0,2.566,1.204,5.005,3.263,6.557
						c1.426,1.109,3.199,1.711,4.973,1.711c0.729,0,1.457-0.095,2.186-0.285c37.697-10.422,74.095-10.422,108.149-0.063
						c1.045,0.317,2.122,0.348,3.168,0.253c1.045,0.095,2.122,0.063,3.168-0.253c34.054-10.39,70.452-10.359,108.149,0.063
						c0.729,0.19,1.457,0.285,2.186,0.285c1.774,0,3.548-0.602,4.973-1.711C262.896,230.795,264.099,228.356,264.099,225.79z"/>
					<path style="fill:#2D213F;" d="M264.099,72.754V225.79c0,2.566-1.204,5.005-3.263,6.557c-1.425,1.109-3.199,1.711-4.973,1.711
						c-0.729,0-1.457-0.095-2.186-0.285c-37.697-10.422-74.095-10.454-108.149-0.063c-1.045,0.317-2.122,0.348-3.168,0.253
						c-1.045,0.095-2.122,0.063-3.168-0.253c-34.054-10.359-70.452-10.359-108.149,0.063c-0.729,0.19-1.457,0.285-2.186,0.285
						c-1.774,0-3.548-0.602-4.973-1.711c-2.059-1.552-3.263-3.991-3.263-6.557V72.754c0-3.295,1.964-6.272,4.973-7.603
						c38.742-16.821,77.991-17.106,116.765-1.014c38.774-16.092,78.023-15.776,116.765,1.014
						C262.135,66.482,264.099,69.459,264.099,72.754z M247.627,215.146v-32.818v-40.611v-38.869v-24.55
						c-32.343-12.766-63.926-12.766-96.269,0v24.55v38.869v40.611v32.628c15.237-3.738,30.854-5.575,46.788-5.575
						C214.333,209.381,230.869,211.313,247.627,215.146z M133.364,214.956v-32.628v-40.611v-38.869v-24.55
						c-32.343-12.766-63.926-12.766-96.269,0v24.55v38.869v40.611v32.818C70.293,207.512,102.573,207.449,133.364,214.956z"/>
					<path style="fill:#EAEEEF;" d="M151.357,78.298v24.55v38.869v40.611v32.628c15.237-3.738,30.854-5.575,46.788-5.575
						c16.187,0,32.723,1.932,49.481,5.765v-32.818v-40.611v-38.869v-24.55C215.284,65.531,183.701,65.531,151.357,78.298z
						 M237.933,184.482c-0.982,3.675-4.308,6.114-7.919,6.114c-0.729,0-1.426-0.095-2.154-0.285
						c-19.799-5.354-40.104-5.354-60.283,0c-4.403,1.172-8.902-1.457-10.074-5.86c-0.19-0.697-0.253-1.426-0.253-2.122
						c0-3.675,2.408-7.033,6.114-8.015c23.03-6.114,46.155-6.114,68.773,0c3.675,1.014,6.082,4.34,6.082,8.015
						C238.218,183.025,238.123,183.754,237.933,184.482z M237.933,143.871c-0.982,3.706-4.308,6.114-7.919,6.114
						c-0.729,0-1.426-0.063-2.154-0.285c-19.799-5.354-40.104-5.354-60.283,0.032c-4.372,1.172-8.902-1.457-10.074-5.892
						c-0.19-0.697-0.253-1.426-0.253-2.122c0-3.675,2.408-7.033,6.114-8.015c23.03-6.114,46.155-6.114,68.773,0.032
						c3.675,0.982,6.082,4.34,6.082,7.983C238.218,142.446,238.123,143.142,237.933,143.871z M237.933,105.002
						c-0.982,3.675-4.308,6.114-7.919,6.114c-0.729,0-1.426-0.095-2.154-0.285c-19.799-5.354-40.104-5.354-60.283,0.032
						c-4.403,1.172-8.902-1.489-10.074-5.892c-0.19-0.697-0.253-1.426-0.253-2.122c0-3.675,2.408-7.033,6.114-8.015
						c23.03-6.114,46.155-6.114,68.773,0.032c3.675,0.982,6.082,4.308,6.082,7.983C238.218,103.545,238.123,104.274,237.933,105.002
						z"/>
					<path style="fill:#2D213F;" d="M238.218,102.848c0,0.697-0.095,1.426-0.285,2.154c-0.982,3.675-4.308,6.114-7.919,6.114
						c-0.729,0-1.426-0.095-2.154-0.285c-19.799-5.354-40.104-5.354-60.283,0.032c-4.403,1.172-8.902-1.489-10.074-5.892
						c-0.19-0.697-0.253-1.426-0.253-2.122c0-3.675,2.408-7.033,6.114-8.015c23.03-6.114,46.155-6.114,68.773,0.032
						C235.811,95.847,238.218,99.173,238.218,102.848z"/>
					<path style="fill:#2D213F;" d="M238.218,141.717c0,0.729-0.095,1.426-0.285,2.154c-0.982,3.706-4.308,6.114-7.919,6.114
						c-0.729,0-1.426-0.063-2.154-0.285c-19.799-5.354-40.104-5.354-60.283,0.032c-4.372,1.172-8.902-1.457-10.074-5.892
						c-0.19-0.697-0.253-1.426-0.253-2.122c0-3.675,2.408-7.033,6.114-8.015c23.03-6.114,46.155-6.114,68.773,0.032
						C235.811,134.716,238.218,138.074,238.218,141.717z"/>
					<path style="fill:#2D213F;" d="M238.218,182.328c0,0.697-0.095,1.426-0.285,2.154c-0.982,3.675-4.308,6.114-7.919,6.114
						c-0.729,0-1.426-0.095-2.154-0.285c-19.799-5.354-40.104-5.354-60.283,0c-4.403,1.172-8.902-1.457-10.074-5.86
						c-0.19-0.697-0.253-1.426-0.253-2.122c0-3.675,2.408-7.033,6.114-8.015c23.03-6.114,46.155-6.114,68.773,0
						C235.811,175.327,238.218,178.653,238.218,182.328z"/>
					<path style="fill:#EAEEEF;" d="M37.095,78.298v24.55v38.869v40.611v32.818c33.199-7.634,65.478-7.698,96.269-0.19v-32.628
						v-40.611v-38.869v-24.55C101.021,65.531,69.438,65.531,37.095,78.298z M124.653,184.482c-0.982,3.675-4.308,6.114-7.951,6.114
						c-0.697,0-1.426-0.095-2.122-0.285c-19.83-5.354-40.104-5.354-60.315,0c-4.372,1.172-8.87-1.457-10.042-5.86
						c-0.19-0.729-0.285-1.426-0.285-2.122c0-3.675,2.439-7.033,6.146-8.015c22.998-6.114,46.155-6.114,68.773,0
						c3.675,1.014,6.082,4.34,6.082,8.015C124.938,183.025,124.843,183.754,124.653,184.482z M124.653,143.871
						c-0.982,3.706-4.308,6.114-7.951,6.114c-0.697,0-1.426-0.063-2.122-0.285c-19.83-5.354-40.104-5.354-60.315,0.032
						c-4.372,1.172-8.87-1.457-10.042-5.892c-0.19-0.729-0.285-1.426-0.285-2.122c0-3.675,2.439-7.033,6.146-8.015
						c22.998-6.114,46.155-6.114,68.773,0.032c3.675,0.982,6.082,4.34,6.082,7.983C124.938,142.446,124.843,143.142,124.653,143.871
						z M124.653,105.002c-0.982,3.675-4.308,6.114-7.951,6.114c-0.697,0-1.426-0.095-2.122-0.285
						c-19.83-5.354-40.104-5.354-60.315,0.032c-4.372,1.172-8.87-1.489-10.042-5.892c-0.19-0.729-0.285-1.426-0.285-2.122
						c0-3.675,2.439-7.033,6.146-8.015c22.998-6.114,46.155-6.114,68.773,0.032c3.675,0.982,6.082,4.308,6.082,7.983
						C124.938,103.545,124.843,104.274,124.653,105.002z"/>
					<path style="fill:#2D213F;" d="M124.938,102.848c0,0.697-0.095,1.426-0.285,2.154c-0.982,3.675-4.308,6.114-7.951,6.114
						c-0.697,0-1.426-0.095-2.122-0.285c-19.83-5.354-40.104-5.354-60.315,0.032c-4.372,1.172-8.87-1.489-10.042-5.892
						c-0.19-0.729-0.285-1.426-0.285-2.122c0-3.675,2.439-7.033,6.146-8.015c22.998-6.114,46.155-6.114,68.773,0.032
						C122.53,95.847,124.938,99.173,124.938,102.848z"/>
					<path style="fill:#2D213F;" d="M124.938,141.717c0,0.729-0.095,1.426-0.285,2.154c-0.982,3.706-4.308,6.114-7.951,6.114
						c-0.697,0-1.426-0.063-2.122-0.285c-19.83-5.354-40.104-5.354-60.315,0.032c-4.372,1.172-8.87-1.457-10.042-5.892
						c-0.19-0.729-0.285-1.426-0.285-2.122c0-3.675,2.439-7.033,6.146-8.015c22.998-6.114,46.155-6.114,68.773,0.032
						C122.53,134.716,124.938,138.074,124.938,141.717z"/>
					<path style="fill:#2D213F;" d="M124.938,182.328c0,0.697-0.095,1.426-0.285,2.154c-0.982,3.675-4.308,6.114-7.951,6.114
						c-0.697,0-1.426-0.095-2.122-0.285c-19.83-5.354-40.104-5.354-60.315,0c-4.372,1.172-8.87-1.457-10.042-5.86
						c-0.19-0.729-0.285-1.426-0.285-2.122c0-3.675,2.439-7.033,6.146-8.015c22.998-6.114,46.155-6.114,68.773,0
						C122.53,175.327,124.938,178.653,124.938,182.328z"/>
				</g>
			</g>
		</g>
		<path style="fill:#C5CBCF;" d="M247.627,215.146v-32.818v-33.661c-35.226,10.954-67.366,16.457-96.269,18.25v15.411v32.628
			c15.237-3.738,30.854-5.575,46.788-5.575C214.333,209.381,230.869,211.313,247.627,215.146z M167.576,190.311
			c-4.403,1.172-8.902-1.457-10.074-5.86c-0.19-0.697-0.253-1.426-0.253-2.122c0-3.675,2.408-7.033,6.114-8.015
			c23.03-6.114,46.155-6.114,68.773,0c3.675,1.014,6.082,4.34,6.082,8.015c0,0.697-0.095,1.426-0.285,2.154
			c-0.982,3.675-4.308,6.114-7.919,6.114c-0.729,0-1.426-0.095-2.154-0.285C208.061,184.957,187.755,184.957,167.576,190.311z"/>
		<path style="fill:#C5CBCF;" d="M133.364,214.956v-32.628v-14.743c-38.745,0.412-70.984-5.81-96.269-13.85v28.593v32.818
			C70.293,207.512,102.573,207.449,133.364,214.956z M54.264,190.311c-4.372,1.172-8.87-1.457-10.042-5.86
			c-0.19-0.729-0.285-1.426-0.285-2.122c0-3.675,2.439-7.033,6.146-8.015c22.998-6.114,46.155-6.114,68.773,0
			c3.675,1.014,6.082,4.34,6.082,8.015c0,0.697-0.095,1.426-0.285,2.154c-0.982,3.675-4.308,6.114-7.951,6.114
			c-0.697,0-1.426-0.095-2.122-0.285C94.749,184.957,74.475,184.957,54.264,190.311z"/>
	</g>
</g>
<g>
</g>
<g>
</g>
<g>
</g>
<g>
</g>
<g>
</g>
<g>
</g>
<g>
</g>
<g>
</g>
<g>
</g>
<g>
</g>
<g>
</g>
<g>
</g>
<g>
</g>
<g>
</g>
<g>
</g>
</svg>
