<?xml version="1.0" encoding="iso-8859-1"?>
<!-- Generator: Adobe Illustrator 19.0.0, SVG Export Plug-In . SVG Version: 6.00 Build 0)  -->
<svg version="1.1" id="Layer_1" xmlns="http://www.w3.org/2000/svg" xmlns:xlink="http://www.w3.org/1999/xlink" x="0px" y="0px"
	 viewBox="0 0 289.887 289.887" style="enable-background:new 0 0 289.887 289.887;" xml:space="preserve">
<g>
	<g>
		<g id="XMLID_23_">
			<g>
				<path style="fill:#2D213F;" d="M287.055,176.084c2.586,2.277,3.504,5.91,2.325,9.137c-1.179,3.259-4.229,5.398-7.642,5.41
					l-57.164,0.245c0-0.064-0.032-0.097-0.064-0.161c-0.386,0.068-0.773,0.164-1.159,0.164l-24.412,0.106l0.39,90.4
					c0.019,4.573-3.604,8.325-8.113,8.344c-4.509,0.019-8.196-3.7-8.216-8.274l-0.39-90.4l-59.322,0.254l0.386,89.724
					c0.019,4.573-3.636,8.293-8.145,8.312c-4.509,0.019-8.196-3.668-8.216-8.241l-0.386-89.724l-98.709,0.425
					c-3.414,0.016-6.483-2.097-7.687-5.314c-1.204-3.246-0.319-6.892,2.248-9.188l39.558-35.339l-15.684,0.068
					c-3.349,0.013-6.419-2.097-7.623-5.282c-1.237-3.182-0.383-6.828,2.087-9.124l39.071-36.141L47.789,91.54
					c-3.253,0.013-6.193-1.939-7.494-4.927c-1.333-3.021-0.77-6.502,1.411-8.96l67.245-74.91c3.079-3.427,8.937-3.452,12.045-0.052
					l44.913,49.21l19.008-21.175c3.076-3.427,8.905-3.452,12.013-0.052l56.884,62.298c2.2,2.406,2.795,5.913,1.52,8.914
					c-1.308,3.034-4.229,4.979-7.481,4.992l-6.956,0.029l30.457,27.693c2.522,2.277,3.375,5.91,2.164,9.104
					c-1.179,3.195-4.196,5.333-7.578,5.346l-9.597,0.042L287.055,176.084z M226.338,174.316l33.59-0.145l-30.743-27.017
					c-2.586-2.245-3.504-5.91-2.325-9.137c1.211-3.227,4.229-5.398,7.642-5.41l10.145-0.045l-30.457-27.664
					c-2.489-2.309-3.375-5.913-2.164-9.137c1.179-3.195,4.229-5.301,7.61-5.314l9.565-0.042l-38.215-41.831l-13.909,15.52
					l11.81,12.927c2.2,2.438,2.795,5.913,1.488,8.947c-1.275,3.002-4.196,4.979-7.449,4.992l-12.399,0.052l39.381,35.806
					c2.489,2.277,3.375,5.913,2.164,9.104c-1.211,3.195-4.229,5.333-7.61,5.346l-15.652,0.068L226.338,174.316z M29.921,175.159
					l171.587-0.738l-39.857-35.03c-2.554-2.245-3.472-5.91-2.293-9.137c1.179-3.224,4.229-5.398,7.61-5.41l16.231-0.071
					l-39.384-35.806c-2.522-2.277-3.407-5.91-2.196-9.104c1.211-3.195,4.229-5.333,7.61-5.346l15.04-0.064l-49.216-53.86
					L66.3,74.875l15.04-0.064c3.382-0.013,6.419,2.097,7.655,5.282c1.237,3.182,0.383,6.824-2.119,9.124l-39.068,36.141
					l16.199-0.071c3.414-0.016,6.483,2.129,7.687,5.346c1.204,3.214,0.319,6.892-2.248,9.156L29.921,175.159z"/>
				<path style="fill:#A3D661;" d="M259.928,174.171l-33.59,0.145l-37.532-32.978l15.652-0.068c3.382-0.016,6.399-2.151,7.61-5.346
					s0.325-6.828-2.164-9.104l-39.381-35.806l12.399-0.052c3.253-0.013,6.174-1.99,7.449-4.992c1.308-3.034,0.712-6.509-1.488-8.947
					l-11.81-12.927l13.909-15.52l38.215,41.831l-9.565,0.042c-3.382,0.016-6.431,2.122-7.61,5.314
					c-1.211,3.227-0.325,6.831,2.164,9.137l30.457,27.664l-10.145,0.045c-3.414,0.013-6.431,2.187-7.642,5.41
					c-1.179,3.227-0.261,6.892,2.325,9.137L259.928,174.171z"/>
				<path style="fill:#A3D661;" d="M201.508,174.422L29.921,175.16l39.526-35.371c2.567-2.264,3.452-5.942,2.248-9.156
					c-1.204-3.214-4.274-5.359-7.687-5.346l-16.199,0.071L86.88,89.216c2.502-2.296,3.356-5.942,2.119-9.124
					s-4.274-5.295-7.655-5.282l-15.04,0.064l48.749-54.282l49.216,53.863l-15.04,0.064c-3.382,0.013-6.399,2.155-7.61,5.346
					c-1.211,3.195-0.325,6.828,2.196,9.104l39.381,35.806l-16.231,0.071c-3.382,0.013-6.431,2.187-7.61,5.41
					c-1.179,3.227-0.261,6.892,2.293,9.137L201.508,174.422z"/>
			</g>
		</g>
		<g>
			<path style="fill:#94C949;" d="M201.508,174.422l-39.857-35.03c-0.428-0.377-0.795-0.805-1.13-1.256
				c-31.104,18.025-71.087,32.054-122.238,36.988L201.508,174.422z"/>
			<path style="fill:#94C949;" d="M183.196,124.774l-0.947-0.86c-0.393,0.29-0.786,0.58-1.182,0.87L183.196,124.774z"/>
		</g>
		<g>
			<path style="fill:#94C949;" d="M204.458,141.27l-15.652,0.068l37.532,32.978l33.59-0.145l-30.743-27.017
				c-2.586-2.245-3.504-5.91-2.325-9.137c1.211-3.224,4.229-5.398,7.642-5.41l10.145-0.045l-30.457-27.664
				c-1.816-1.684-2.766-4.061-2.683-6.476c-4.95,5.111-10.312,10.19-16.154,15.162l14.554,13.233
				c2.489,2.277,3.375,5.913,2.164,9.104C210.857,139.115,207.839,141.254,204.458,141.27z"/>
			<path style="fill:#94C949;" d="M219.636,90.447l9.565-0.042l-5.324-5.829c-1.626,1.977-3.304,3.955-5.05,5.935
				C219.092,90.485,219.359,90.45,219.636,90.447z"/>
		</g>
	</g>
</g>
<g>
</g>
<g>
</g>
<g>
</g>
<g>
</g>
<g>
</g>
<g>
</g>
<g>
</g>
<g>
</g>
<g>
</g>
<g>
</g>
<g>
</g>
<g>
</g>
<g>
</g>
<g>
</g>
<g>
</g>
</svg>
