<?xml version="1.0" encoding="iso-8859-1"?>
<!-- Generator: Adobe Illustrator 19.0.0, SVG Export Plug-In . SVG Version: 6.00 Build 0)  -->
<svg version="1.1" id="Layer_1" xmlns="http://www.w3.org/2000/svg" xmlns:xlink="http://www.w3.org/1999/xlink" x="0px" y="0px"
	 viewBox="0 0 275.885 275.885" style="enable-background:new 0 0 275.885 275.885;" xml:space="preserve">
<g>
	<g>
		<g>
			<g id="XMLID_6_">
				<g>
					<g>
						<g>
							<rect x="82.777" y="15.997" style="fill:#AAE1E9;" width="29.461" height="33.04"/>
						</g>
					</g>
					<g>
						<g>
							<polygon style="fill:#EAEEEF;" points="112.237,65.035 112.237,237.331 97.729,255.229 82.777,237.3 82.777,65.035 							
								"/>
						</g>
					</g>
					<g>
						<g>
							<path style="fill:#FEDE94;" d="M215.19,20.02v234.164h-41.181v-12.608h12.608c4.435,0,8.046-3.611,8.046-8.015
								c0-4.435-3.611-8.015-8.046-8.015h-12.608v-22.048h12.608c4.435,0,8.046-3.58,8.046-7.983c0-4.435-3.611-8.015-8.046-8.015
								h-12.608v-22.048h12.608c4.435,0,8.046-3.58,8.046-7.983c0-4.435-3.611-8.015-8.046-8.015h-12.608v-22.048h12.608
								c4.435,0,8.046-3.58,8.046-7.983c0-4.435-3.611-8.015-8.046-8.015h-12.608V89.364h12.608c4.435,0,8.046-3.58,8.046-7.983
								c0-4.435-3.611-8.015-8.046-8.015h-12.608V51.318h12.608c4.435,0,8.046-3.58,8.046-7.983c0-4.435-3.611-8.015-8.046-8.015
								h-12.608v-15.3H215.19z"/>
						</g>
					</g>
					<g>
						<g>
							<path style="fill:#2D213F;" d="M231.251,12.006v250.193c0,4.403-3.611,8.015-8.046,8.015h-57.242
								c-4.435,0-8.015-3.611-8.015-8.015V12.006c0-4.435,3.58-8.015,8.015-8.015h57.242C227.64,3.991,231.251,7.571,231.251,12.006
								z M215.19,254.184V20.02h-41.181v15.3h12.608c4.435,0,8.046,3.58,8.046,8.015c0,4.403-3.611,7.983-8.046,7.983h-12.608
								v22.048h12.608c4.435,0,8.046,3.58,8.046,8.015c0,4.403-3.611,7.983-8.046,7.983h-12.608v22.048h12.608
								c4.435,0,8.046,3.58,8.046,8.015c0,4.403-3.611,7.983-8.046,7.983h-12.608v22.048h12.608c4.435,0,8.046,3.58,8.046,8.015
								c0,4.403-3.611,7.983-8.046,7.983h-12.608v22.048h12.608c4.435,0,8.046,3.58,8.046,8.015c0,4.403-3.611,7.983-8.046,7.983
								h-12.608v22.048h12.608c4.435,0,8.046,3.58,8.046,8.015c0,4.403-3.611,8.015-8.046,8.015h-12.608v12.608h41.181V254.184z"/>
						</g>
					</g>
					<g>
						<g>
							<path style="fill:#2D213F;" d="M128.329,8.015v232.168c0,1.837-0.634,3.611-1.806,5.037l-22.46,27.687
								c-1.521,1.869-3.801,2.946-6.209,2.978h-0.032c-2.408,0-4.657-1.077-6.209-2.914l-23.03-27.687
								c-1.204-1.426-1.869-3.231-1.869-5.1V65.035h-6.019v59.396c0,4.403-3.611,8.015-8.046,8.015s-8.015-3.611-8.015-8.015V57.052
								c0-4.435,3.58-8.015,8.015-8.015h14.065V8.015C66.716,3.58,70.327,0,74.762,0h45.521C124.718,0,128.329,3.58,128.329,8.015z
								 M112.237,237.331V65.035h-29.46V237.3l14.952,17.93L112.237,237.331z M112.237,49.038v-33.04h-29.46v33.04H112.237z"/>
						</g>
					</g>
				</g>
			</g>
		</g>
		<g>
			<g>
				<polygon style="fill:#C5CBCF;" points="100.003,252.423 112.237,237.331 112.237,65.035 100.003,65.035 				"/>
			</g>
		</g>
		<g>
			<g>
				<rect x="199.016" y="20.02" style="fill:#F2CE75;" width="16.175" height="234.164"/>
			</g>
		</g>
	</g>
</g>
<g>
</g>
<g>
</g>
<g>
</g>
<g>
</g>
<g>
</g>
<g>
</g>
<g>
</g>
<g>
</g>
<g>
</g>
<g>
</g>
<g>
</g>
<g>
</g>
<g>
</g>
<g>
</g>
<g>
</g>
</svg>
