<?xml version="1.0" encoding="iso-8859-1"?>
<!-- Generator: Adobe Illustrator 19.0.0, SVG Export Plug-In . SVG Version: 6.00 Build 0)  -->
<svg version="1.1" id="Layer_1" xmlns="http://www.w3.org/2000/svg" xmlns:xlink="http://www.w3.org/1999/xlink" x="0px" y="0px"
	 viewBox="0 0 227.829 227.829" style="enable-background:new 0 0 227.829 227.829;" xml:space="preserve">
<g>
	<g>
		<g>
			<g id="XMLID_30_">
				<g>
					<g>
						<path style="fill:#2D213F;" d="M227.813,8.015v211.799c0,4.403-3.58,8.015-7.983,8.015H8.031
							c-4.435,0-8.015-3.611-8.015-8.015c0-2.122,0.855-4.308,2.344-5.829L214.002,2.344C215.49,0.855,217.549,0,219.672,0
							C224.075,0,227.813,3.611,227.813,8.015z M211.816,211.799v-8.87h-6.114c-4.435,0-8.015-3.58-8.015-8.015
							c0-4.403,3.58-7.983,8.015-7.983h6.114v-30.348h-6.114c-4.435,0-8.015-3.58-8.015-8.015c0-4.403,3.58-7.983,8.015-7.983h6.114
							v-30.348h-6.114c-4.435,0-8.015-3.58-8.015-7.983c0-4.435,3.58-8.015,8.015-8.015h6.114V63.926h-6.114
							c-4.435,0-8.015-3.58-8.015-8.015c0-4.403,3.58-8.015,8.015-8.015h6.114V27.18L27.197,211.799H211.816z"/>
					</g>
					<g>
						<path style="fill:#FEDE94;" d="M211.816,202.929v8.87H27.197L211.816,27.18v20.717h-6.114c-4.435,0-8.015,3.611-8.015,8.015
							c0,4.435,3.58,8.015,8.015,8.015h6.114v30.316h-6.114c-4.435,0-8.015,3.58-8.015,8.015c0,4.403,3.58,7.983,8.015,7.983h6.114
							v30.348h-6.114c-4.435,0-8.015,3.58-8.015,7.983c0,4.435,3.58,8.015,8.015,8.015h6.114v30.348h-6.114
							c-4.435,0-8.015,3.58-8.015,7.983c0,4.435,3.58,8.015,8.015,8.015C205.702,202.929,211.816,202.929,211.816,202.929z
							 M186.347,178.347v-70.103c0-4.403-3.643-7.983-8.046-7.983c-2.122,0-4.181,0.824-5.67,2.344l-70.04,70.008
							c-1.489,1.521-2.344,3.611-2.344,5.734c0,4.403,3.58,7.983,8.015,7.983h70.072C182.767,186.33,186.347,182.75,186.347,178.347
							z"/>
					</g>
					<g>
						<path style="fill:#2D213F;" d="M186.347,108.244v70.103c0,4.403-3.58,7.983-8.015,7.983H108.26
							c-4.435,0-8.015-3.58-8.015-7.983c0-2.122,0.855-4.213,2.344-5.734l70.04-70.008c1.489-1.521,3.548-2.344,5.67-2.344
							C182.704,100.261,186.347,103.84,186.347,108.244z M170.349,170.332v-42.797l-42.829,42.797
							C127.521,170.332,170.349,170.332,170.349,170.332z"/>
					</g>
				</g>
			</g>
		</g>
		<path style="fill:#F2CE75;" d="M211.816,202.929h-6.114c-4.435,0-8.015-3.58-8.015-8.015c0-4.403,3.58-7.983,8.015-7.983h6.114
			v-30.348h-6.114c-4.435,0-8.015-3.58-8.015-8.015c0-4.403,3.58-7.983,8.015-7.983h6.114v-30.348h-6.114
			c-4.435,0-8.015-3.58-8.015-7.983c0-4.435,3.58-8.015,8.015-8.015h6.114V63.926h-6.114c-4.435,0-8.015-3.58-8.015-8.015
			c0-4.403,3.58-8.015,8.015-8.015h6.114V27.18l-14.318,14.318l-5.924,155.051L34.99,204.006l-7.793,7.793h184.619V202.929
			L211.816,202.929z"/>
	</g>
</g>
<g>
</g>
<g>
</g>
<g>
</g>
<g>
</g>
<g>
</g>
<g>
</g>
<g>
</g>
<g>
</g>
<g>
</g>
<g>
</g>
<g>
</g>
<g>
</g>
<g>
</g>
<g>
</g>
<g>
</g>
</svg>
